<svg width="60" height="47" viewBox="0 0 60 47" fill="none" xmlns="http://www.w3.org/2000/svg">
<g clip-path="url(#clip0_325_879)">
<mask id="mask0_325_879" style="mask-type:luminance" maskUnits="userSpaceOnUse" x="0" y="0" width="60" height="47">
<path d="M60 0.478882H0V46.9578H60V0.478882Z" fill="white"/>
</mask>
<g mask="url(#mask0_325_879)">
<path d="M50.7925 4.61788C46.9683 2.86317 42.8675 1.57038 38.5797 0.829949C38.5017 0.815659 38.4237 0.851371 38.3834 0.922796C37.856 1.86083 37.2718 3.08458 36.8627 4.04644C32.251 3.35602 27.663 3.35602 23.1458 4.04644C22.7366 3.0632 22.1312 1.86083 21.6014 0.922796C21.5612 0.853754 21.4832 0.818042 21.4051 0.829949C17.1198 1.56802 13.0189 2.86081 9.19234 4.61788C9.15921 4.63216 9.13082 4.65599 9.11197 4.68692C1.33348 16.3078 -0.797376 27.6431 0.24795 38.8378C0.25268 38.8926 0.283425 38.945 0.325995 38.9783C5.45802 42.7471 10.4293 45.0351 15.3082 46.5517C15.3863 46.5755 15.469 46.547 15.5187 46.4827C16.6728 44.9066 17.7016 43.2448 18.5837 41.4972C18.6357 41.3948 18.5861 41.2734 18.4797 41.2329C16.8478 40.6139 15.294 39.8592 13.7993 39.0021C13.6811 38.9331 13.6716 38.764 13.7804 38.683C14.0949 38.4473 14.4095 38.2021 14.7099 37.9545C14.7642 37.9093 14.8399 37.8997 14.9038 37.9283C24.7232 42.4115 35.3539 42.4115 45.0574 37.9283C45.1213 37.8973 45.197 37.9069 45.2537 37.9521C45.5541 38.1997 45.8686 38.4473 46.1856 38.683C46.2943 38.764 46.2872 38.9331 46.169 39.0021C44.6743 39.8758 43.1205 40.6139 41.4863 41.2306C41.3799 41.271 41.3326 41.3948 41.3846 41.4972C42.2856 43.2423 43.3144 44.9042 44.4472 46.4803C44.4946 46.547 44.5797 46.5755 44.6577 46.5517C49.5603 45.0351 54.5315 42.7471 59.6636 38.9783C59.7085 38.945 59.7369 38.8949 59.7417 38.8402C60.9927 25.8978 57.6462 14.6555 50.8705 4.68928C50.854 4.65599 50.8257 4.63216 50.7925 4.61788ZM20.0501 32.0214C17.0937 32.0214 14.6578 29.3073 14.6578 25.9741C14.6578 22.6409 17.0465 19.9267 20.0501 19.9267C23.0772 19.9267 25.4895 22.6647 25.4422 25.9741C25.4422 29.3073 23.0535 32.0214 20.0501 32.0214ZM39.9869 32.0214C37.0306 32.0214 34.5947 29.3073 34.5947 25.9741C34.5947 22.6409 36.9833 19.9267 39.9869 19.9267C43.0141 19.9267 45.4263 22.6647 45.3791 25.9741C45.3791 29.3073 43.0141 32.0214 39.9869 32.0214Z" fill="white"/>
</g>
</g>
<defs>
<clipPath id="clip0_325_879">
<rect width="60" height="46.4789" fill="white" transform="translate(0 0.478882)"/>
</clipPath>
</defs>
</svg>
