<svg width="60" height="60" viewBox="0 0 60 60" fill="none" xmlns="http://www.w3.org/2000/svg">
<g clip-path="url(#clip0_325_887)">
<path d="M30.0002 0.59375C13.4337 0.59375 0 14.025 0 30.594C0 43.8489 8.59598 55.0943 20.516 59.0611C22.0153 59.3389 22.5658 58.4104 22.5658 57.618C22.5658 56.9026 22.5379 54.5394 22.525 52.0325C14.1789 53.8473 12.4178 48.4929 12.4178 48.4929C11.0531 45.0253 9.08681 44.1032 9.08681 44.1032C6.36489 42.2413 9.29199 42.2795 9.29199 42.2795C12.3045 42.4912 13.8908 45.3711 13.8908 45.3711C16.5665 49.9574 20.909 48.6315 22.6209 47.865C22.8902 45.926 23.6676 44.6025 24.5256 43.8534C17.8621 43.0948 10.8574 40.5224 10.8574 29.0271C10.8574 25.7518 12.0293 23.0756 13.9484 20.9746C13.6369 20.219 12.6101 17.1677 14.239 13.0354C14.239 13.0354 16.7583 12.2291 22.4912 16.1105C24.8843 15.4458 27.4507 15.1125 30.0002 15.1011C32.5498 15.1125 35.1182 15.4458 37.5157 16.1105C43.2417 12.2291 45.7575 13.0354 45.7575 13.0354C47.3904 17.1677 46.3631 20.219 46.0516 20.9746C47.9752 23.0756 49.1391 25.7518 49.1391 29.0271C49.1391 40.5497 42.121 43.0868 35.4406 43.8295C36.5167 44.7605 37.4755 46.5862 37.4755 49.3851C37.4755 53.3992 37.4407 56.6298 37.4407 57.618C37.4407 58.4163 37.9807 59.3518 39.5014 59.0572C51.4149 55.0858 60 43.8444 60 30.594C60 14.025 46.5682 0.59375 30.0002 0.59375ZM11.2361 43.3297C11.17 43.4788 10.9355 43.5235 10.7219 43.4211C10.5043 43.3233 10.3821 43.1201 10.4526 42.9706C10.5172 42.817 10.7522 42.7743 10.9693 42.8772C11.1874 42.975 11.3116 43.1802 11.2361 43.3297ZM12.7117 44.6465C12.5687 44.7791 12.289 44.7175 12.0992 44.5079C11.903 44.2987 11.8662 44.019 12.0113 43.8844C12.1588 43.7517 12.4301 43.8138 12.6268 44.023C12.823 44.2346 12.8613 44.5123 12.7117 44.6465ZM13.7241 46.3312C13.5403 46.4589 13.2397 46.3391 13.0539 46.0723C12.8701 45.8056 12.8701 45.4856 13.0579 45.3575C13.2442 45.2293 13.5403 45.3445 13.7286 45.6093C13.9119 45.8806 13.9119 46.2005 13.7241 46.3312ZM15.4363 48.2823C15.2718 48.4636 14.9216 48.415 14.6652 48.1675C14.4029 47.9256 14.3299 47.5823 14.4948 47.401C14.6613 47.2192 15.0135 47.2703 15.2718 47.5158C15.5321 47.7572 15.6116 48.103 15.4363 48.2823ZM17.649 48.941C17.5765 49.176 17.2392 49.2828 16.8994 49.1829C16.5601 49.0801 16.338 48.8049 16.4066 48.5674C16.4771 48.3309 16.8159 48.2196 17.1582 48.3265C17.497 48.4288 17.7196 48.702 17.649 48.941ZM20.1673 49.2204C20.1757 49.4678 19.8876 49.673 19.5309 49.6774C19.1722 49.6854 18.8821 49.4852 18.8781 49.2417C18.8781 48.9919 19.1598 48.7887 19.5184 48.7827C19.8751 48.7758 20.1673 48.9745 20.1673 49.2204ZM22.6411 49.1255C22.6839 49.367 22.436 49.6149 22.0817 49.681C21.7335 49.7446 21.4111 49.5955 21.3669 49.3561C21.3236 49.1087 21.576 48.8608 21.9238 48.7967C22.2785 48.7351 22.5959 48.8801 22.6411 49.1255Z" fill="white" fill-opacity="0.8"/>
</g>
<defs>
<clipPath id="clip0_325_887">
<rect width="60" height="58.5938" fill="white" transform="translate(0 0.59375)"/>
</clipPath>
</defs>
</svg>
