<svg width="60" height="60" viewBox="0 0 60 60" fill="none" xmlns="http://www.w3.org/2000/svg">
<g clip-path="url(#clip0_325_892)">
<path d="M17.5753 0.209996C14.3833 0.360596 12.2034 0.869996 10.2978 1.6188C8.32565 2.3874 6.65405 3.4188 4.99085 5.088C3.32765 6.7572 2.30345 8.43 1.54025 10.4052C0.801649 12.315 0.301249 14.4966 0.160249 17.6904C0.0192487 20.8842 -0.0119514 21.9108 0.00364864 30.0576C0.0192486 38.2044 0.0552487 39.2256 0.210049 42.426C0.362449 45.6174 0.870049 47.7966 1.61885 49.7028C2.38865 51.675 3.41885 53.346 5.08865 55.0098C6.75845 56.6736 8.43005 57.6954 10.41 58.4598C12.318 59.1972 14.5002 59.7 17.6934 59.8398C20.8867 59.9796 21.9144 60.012 30.0588 59.9964C38.2033 59.9808 39.2286 59.9448 42.4284 59.793C45.6282 59.6412 47.796 59.13 49.7028 58.3848C51.675 57.6132 53.3472 56.5848 55.0098 54.9144C56.6724 53.244 57.696 51.57 58.4586 49.5936C59.1978 47.6856 59.7 45.5034 59.8386 42.3126C59.9784 39.1104 60.0114 38.088 59.9958 29.9424C59.9802 21.7968 59.9436 20.7756 59.7918 17.5764C59.64 14.3772 59.1318 12.2046 58.3836 10.2972C57.6126 8.325 56.5836 6.6552 54.9144 4.9902C53.2452 3.3252 51.57 2.3022 49.5942 1.5414C47.685 0.802796 45.504 0.299396 42.3108 0.161396C39.1176 0.0233959 38.0898 -0.0120041 29.9424 0.00359594C21.795 0.0191959 20.775 0.0539959 17.5753 0.209996ZM17.9256 54.4428C15.0006 54.3156 13.4124 53.8296 12.354 53.4228C10.9524 52.8828 9.95405 52.23 8.89925 51.1854C7.84445 50.1408 7.19645 49.1388 6.64925 47.7402C6.23825 46.6818 5.74325 45.0954 5.60645 42.1704C5.45765 39.009 5.42645 38.0598 5.40905 30.0504C5.39165 22.041 5.42225 21.093 5.56085 17.9304C5.68565 15.0078 6.17465 13.4178 6.58085 12.36C7.12085 10.9566 7.77125 9.96 8.81825 8.9058C9.86525 7.8516 10.8642 7.2024 12.264 6.6552C13.3212 6.2424 14.9076 5.7516 17.8314 5.6124C20.9952 5.4624 21.9432 5.4324 29.9514 5.415C37.9596 5.3976 38.91 5.4276 42.075 5.5668C44.9976 5.694 46.5882 6.1782 47.6448 6.5868C49.047 7.1268 50.0448 7.7754 51.099 8.8242C52.1532 9.873 52.803 10.8684 53.3502 12.2712C53.7636 13.3254 54.2544 14.9112 54.3924 17.8368C54.543 21.0006 54.5772 21.9492 54.5916 29.9568C54.606 37.9644 54.5778 38.9154 54.4392 42.0768C54.3114 45.0018 53.8266 46.5906 53.4192 47.6502C52.8792 49.0512 52.2282 50.0502 51.1806 51.1038C50.133 52.1574 49.1352 52.8066 47.7348 53.3538C46.6788 53.766 45.0906 54.258 42.1692 54.3972C39.0054 54.546 38.0574 54.5772 30.0462 54.5946C22.035 54.612 21.09 54.5796 17.9262 54.4428M42.3822 13.9662C42.3834 14.6783 42.5958 15.374 42.9924 15.9654C43.389 16.5567 43.9521 17.0172 44.6104 17.2886C45.2687 17.5599 45.9928 17.6299 46.6909 17.4898C47.389 17.3496 48.0299 17.0055 48.5325 16.5011C49.0351 15.9967 49.3768 15.3545 49.5144 14.6559C49.652 13.9573 49.5793 13.2335 49.3056 12.5762C49.0318 11.9188 48.5693 11.3574 47.9764 10.963C47.3836 10.5685 46.6871 10.3588 45.975 10.3602C45.0205 10.3621 44.1057 10.7431 43.432 11.4193C42.7582 12.0955 42.3807 13.0116 42.3822 13.9662ZM14.5962 30.03C14.613 38.538 21.5226 45.4194 30.0288 45.4032C38.535 45.387 45.4212 38.478 45.405 29.97C45.3888 21.462 38.4774 14.5788 29.97 14.5956C21.4627 14.6124 14.58 21.5232 14.5962 30.03ZM19.9998 30.0192C19.9959 28.0414 20.5786 26.1068 21.6742 24.4601C22.7698 22.8134 24.329 21.5285 26.1548 20.768C27.9806 20.0075 29.9909 19.8055 31.9315 20.1875C33.8722 20.5695 35.6559 21.5184 37.0572 22.9142C38.4585 24.31 39.4145 26.09 39.8042 28.0291C40.1939 29.9681 39.9998 31.9792 39.2466 33.808C38.4933 35.6368 37.2146 37.2012 35.5723 38.3033C33.93 39.4053 31.9977 39.9957 30.0198 39.9996C28.7066 40.0024 27.4056 39.7464 26.1912 39.2463C24.9769 38.7462 23.873 38.0118 22.9425 37.085C22.012 36.1582 21.2732 35.0571 20.7683 33.8448C20.2634 32.6324 20.0023 31.3325 19.9998 30.0192Z" fill="white"/>
</g>
<defs>
<clipPath id="clip0_325_892">
<rect width="60" height="60" fill="white"/>
</clipPath>
</defs>
</svg>
