<svg width="60" height="60" viewBox="0 0 60 60" fill="none" xmlns="http://www.w3.org/2000/svg">
<path d="M51.1228 51.0259H42.2327V37.2407C42.2327 33.9535 42.1735 29.7219 37.609 29.7219C32.9787 29.7219 32.2702 33.3034 32.2702 37.0014V51.025H23.3801V22.6771H31.9146V26.5511H32.0341C32.8882 25.1051 34.1224 23.9156 35.6053 23.1092C37.0881 22.3029 38.7641 21.9098 40.4547 21.9719C49.4652 21.9719 51.1266 27.8403 51.1266 35.4747L51.1228 51.0259ZM13.3491 18.8021C12.3287 18.8023 11.3312 18.5029 10.4827 17.9417C9.63416 17.3806 8.97282 16.5829 8.58218 15.6495C8.19153 14.7162 8.08915 13.6891 8.28804 12.6982C8.48692 11.7073 8.97812 10.797 9.6995 10.0824C10.4209 9.36791 11.34 8.88124 12.3408 8.68395C13.3415 8.48667 14.3788 8.58765 15.3216 8.97411C16.2643 9.36058 17.0702 10.0152 17.6372 10.8551C18.2043 11.6951 18.507 12.6826 18.5072 13.6929C18.5073 14.3638 18.374 15.028 18.1148 15.6479C17.8557 16.2677 17.4758 16.8309 16.9968 17.3053C16.5178 17.7797 15.9491 18.1561 15.3233 18.4129C14.6974 18.6697 14.0266 18.802 13.3491 18.8021ZM17.7941 51.0259H8.89474V22.6771H17.7941V51.0259ZM55.5549 0.411152H4.42748C3.26703 0.398185 2.14879 0.841923 1.3186 1.64486C0.488405 2.44779 0.0141626 3.54423 0 4.69323V55.5272C0.0136779 56.6767 0.487642 57.7739 1.31781 58.5777C2.14797 59.3815 3.26645 59.8261 4.42748 59.8138H55.5549C56.7183 59.8283 57.8399 59.3849 58.6733 58.5812C59.5068 57.7774 59.9839 56.679 60 55.5272V4.68957C59.9834 3.53828 59.5059 2.4406 58.6725 1.63768C57.839 0.834769 56.7177 0.392299 55.5549 0.407483" fill="white"/>
</svg>
