<svg width="60" height="60" viewBox="0 0 60 60" fill="none" xmlns="http://www.w3.org/2000/svg">
<g clip-path="url(#clip0_325_939)">
<path d="M30.24 0.299988C13.68 0.179988 0.179988 13.68 0.299988 30.24C0.419988 46.38 13.62 59.52 29.76 59.7C46.38 59.82 59.88 46.32 59.7 29.76C59.58 13.62 46.38 0.419988 30.24 0.299988ZM21.36 15.54C23.22 17.88 24.3 20.82 24.3 24.06C24.3 26.82 23.46 29.4 22.08 31.56H12.12L21.36 15.54ZM51.6 35.4C50.94 35.7 48.72 36.72 47.76 38.04C45.36 41.34 43.56 46.62 39.48 46.62H22.38C16.32 46.62 11.28 41.82 11.34 35.46C11.34 35.28 11.46 35.16 11.64 35.16H19.68C19.98 35.16 20.16 35.4 20.16 35.64V37.2C20.16 38.04 20.82 38.7 21.66 38.7H27.78V35.16H23.58C25.98 32.1 27.42 28.26 27.42 24.06C27.42 19.38 25.62 15.12 22.68 11.94C24.48 12.12 26.16 12.48 27.72 12.96V11.94C27.72 10.92 28.56 10.08 29.58 10.08C30.6 10.08 31.44 10.92 31.44 11.94V14.34C37.14 16.98 40.92 21.42 40.92 26.46C40.92 29.4 39.66 32.16 37.44 34.44C37.02 34.86 36.42 35.1 35.82 35.1H31.5V38.64H36.9C38.04 38.64 40.14 36.42 41.16 35.1C41.16 35.1 41.22 35.04 41.34 34.98C41.46 34.92 51.3 32.7 51.3 32.7C51.48 32.64 51.72 32.82 51.72 33L51.78 35.1C51.78 35.22 51.72 35.34 51.6 35.4Z" fill="white"/>
</g>
<defs>
<clipPath id="clip0_325_939">
<rect width="60" height="60" fill="white"/>
</clipPath>
</defs>
</svg>
